%FSLAX34Y34*%
%MOMM*%
%LNSILK_TOP*%
G71*
G01*
%ADD10C, 1.90*%
%ADD11C, 2.04*%
%ADD12C, 2.54*%
%ADD13C, 2.00*%
%ADD14C, 1.80*%
%ADD15C, 2.54*%
%ADD16C, 6.00*%
%ADD17C, 1.91*%
%ADD18C, 1.50*%
%ADD19C, 1.20*%
%ADD20C, 1.10*%
%ADD21C, 1.00*%
%ADD22C, 0.80*%
%ADD23C, 0.32*%
%ADD24C, 0.24*%
%ADD25C, 1.40*%
%ADD26C, 1.40*%
%ADD27C, 2.00*%
%ADD28C, 2.04*%
%ADD29C, 0.29*%
%LPD*%
X871538Y-457588D02*
G54D10*
D03*
X871538Y-382588D02*
G54D10*
D03*
X999331Y-457588D02*
G54D10*
D03*
X999331Y-382588D02*
G54D10*
D03*
X150824Y-198401D02*
G54D11*
D03*
X176224Y-198401D02*
G54D11*
D03*
X201624Y-198401D02*
G54D11*
D03*
X74624Y-198401D02*
G54D11*
D03*
X100024Y-198401D02*
G54D11*
D03*
X125424Y-198401D02*
G54D11*
D03*
X303224Y-198401D02*
G54D11*
D03*
X328624Y-198401D02*
G54D11*
D03*
X354024Y-198401D02*
G54D11*
D03*
X227024Y-198401D02*
G54D11*
D03*
X252424Y-198401D02*
G54D11*
D03*
X277824Y-198401D02*
G54D11*
D03*
X379424Y-198401D02*
G54D11*
D03*
X404824Y-198401D02*
G54D11*
D03*
X430224Y-198401D02*
G54D11*
D03*
X150824Y-347626D02*
G54D11*
D03*
X176224Y-347626D02*
G54D11*
D03*
X201624Y-347626D02*
G54D11*
D03*
X74624Y-347626D02*
G54D11*
D03*
X100024Y-347626D02*
G54D11*
D03*
X125424Y-347626D02*
G54D11*
D03*
X303224Y-347626D02*
G54D11*
D03*
X328624Y-347626D02*
G54D11*
D03*
X354024Y-347626D02*
G54D11*
D03*
X227024Y-347626D02*
G54D11*
D03*
X252424Y-347626D02*
G54D11*
D03*
X277824Y-347626D02*
G54D11*
D03*
X379424Y-347626D02*
G54D11*
D03*
X404824Y-347626D02*
G54D11*
D03*
X430224Y-347626D02*
G54D11*
D03*
X871538Y-271850D02*
G54D10*
D03*
X871538Y-196850D02*
G54D10*
D03*
X999331Y-271850D02*
G54D10*
D03*
X999331Y-196850D02*
G54D10*
D03*
X1100188Y-347612D02*
G54D12*
D03*
X1100188Y-398412D02*
G54D12*
D03*
X409575Y-393700D02*
G54D13*
D03*
X485775Y-393700D02*
G54D13*
D03*
X303212Y-392112D02*
G54D13*
D03*
X379412Y-392112D02*
G54D13*
D03*
X369888Y-488950D02*
G54D13*
D03*
X446088Y-488950D02*
G54D13*
D03*
X246062Y-122238D02*
G54D13*
D03*
X246062Y-46038D02*
G54D13*
D03*
X217488Y-138113D02*
G54D13*
D03*
X217488Y-61912D02*
G54D13*
D03*
X347679Y-58779D02*
G54D11*
D03*
X322279Y-58779D02*
G54D11*
D03*
X347679Y-106404D02*
G54D11*
D03*
X322279Y-106404D02*
G54D11*
D03*
X263525Y-441325D02*
G54D14*
D03*
X263525Y-390525D02*
G54D14*
D03*
X300038Y-446088D02*
G54D14*
D03*
X340038Y-446088D02*
G54D14*
D03*
X177800Y-52388D02*
G54D13*
D03*
X177800Y-128588D02*
G54D13*
D03*
X152400Y-52388D02*
G54D13*
D03*
X152400Y-128588D02*
G54D13*
D03*
X127000Y-52388D02*
G54D13*
D03*
X127000Y-128588D02*
G54D13*
D03*
X101600Y-52388D02*
G54D13*
D03*
X101600Y-128588D02*
G54D13*
D03*
X322262Y-152400D02*
G54D13*
D03*
X246062Y-152400D02*
G54D13*
D03*
X387851Y-58301D02*
G54D15*
D03*
X387851Y-109101D02*
G54D15*
D03*
X438651Y-83701D02*
G54D15*
D03*
X474662Y-57150D02*
G54D14*
D03*
X474662Y-107950D02*
G54D14*
D03*
X1100188Y-246012D02*
G54D12*
D03*
X1100188Y-296812D02*
G54D12*
D03*
X393700Y-420688D02*
G54D14*
D03*
X444500Y-420688D02*
G54D14*
D03*
X49246Y-46066D02*
G54D16*
D03*
X1100188Y-144412D02*
G54D12*
D03*
X1100188Y-195212D02*
G54D12*
D03*
X604837Y-50800D02*
G54D13*
D03*
X681037Y-50800D02*
G54D13*
D03*
X577915Y-41496D02*
G54D17*
D03*
X577915Y-66896D02*
G54D17*
D03*
X501715Y-41496D02*
G54D17*
D03*
X501715Y-66896D02*
G54D17*
D03*
X501715Y-92296D02*
G54D17*
D03*
X577915Y-92296D02*
G54D17*
D03*
X1109696Y-46066D02*
G54D16*
D03*
X49246Y-492154D02*
G54D16*
D03*
X1109696Y-493741D02*
G54D16*
D03*
G54D18*
X74612Y-344488D02*
X74612Y-331788D01*
X49212Y-306388D01*
X49212Y-141288D01*
X61912Y-128588D01*
X100012Y-128588D01*
G54D19*
X125412Y-128588D02*
X125412Y-138112D01*
X112712Y-150812D01*
X80962Y-150812D01*
X74612Y-157162D01*
X74612Y-198438D01*
G54D19*
X100012Y-198438D02*
X100012Y-176212D01*
X106362Y-169862D01*
X122238Y-169862D01*
X149225Y-142875D01*
X149225Y-128588D01*
G54D19*
X125412Y-198438D02*
X125412Y-195262D01*
X176212Y-144462D01*
X176212Y-131762D01*
G54D20*
X150812Y-198438D02*
X150812Y-195262D01*
X198438Y-147638D01*
X198438Y-122238D01*
X207962Y-112712D01*
X258762Y-112712D01*
X265112Y-119062D01*
G54D19*
X176212Y-198438D02*
X176212Y-195262D01*
X217488Y-153988D01*
X217488Y-134938D01*
G54D19*
X100012Y-52388D02*
X176212Y-52388D01*
G54D21*
X319088Y-106362D02*
X319088Y-96838D01*
X303212Y-80962D01*
X233362Y-80962D01*
X217488Y-65088D01*
G54D19*
X246062Y-150812D02*
X274638Y-150812D01*
X293688Y-131762D01*
X293688Y-106362D01*
X284162Y-96838D01*
X185738Y-96838D01*
X176212Y-87312D01*
X176212Y-52388D01*
G54D19*
X246062Y-47625D02*
X263525Y-65088D01*
X322262Y-65088D01*
G54D19*
X385762Y-68262D02*
X347662Y-68262D01*
G54D22*
X271462Y-46038D02*
X279400Y-38100D01*
X493712Y-38100D01*
X500062Y-44450D01*
G54D19*
X354012Y-347662D02*
X354012Y-376238D01*
X341312Y-388938D01*
X303212Y-388938D01*
X263525Y-388938D01*
G54D19*
X341312Y-392112D02*
X341312Y-442912D01*
G54D19*
X258762Y-458788D02*
X258762Y-493712D01*
G54D18*
X501650Y-66675D02*
X527050Y-66675D01*
X527050Y-20638D01*
X23812Y-20638D01*
X23812Y-515938D01*
X920750Y-515938D01*
X74612Y-398462D02*
G54D14*
D03*
X125412Y-398462D02*
G54D14*
D03*
G54D18*
X125412Y-347662D02*
X125412Y-395288D01*
G54D18*
X71438Y-398462D02*
X26988Y-398462D01*
G54D23*
X298301Y-244529D02*
X289412Y-226751D01*
X280523Y-244529D01*
G54D23*
X294746Y-237862D02*
X284079Y-237862D01*
G54D23*
X267190Y-235640D02*
X261856Y-237862D01*
X260079Y-240084D01*
X260079Y-244529D01*
G54D23*
X274301Y-244529D02*
X274301Y-226751D01*
X265412Y-226751D01*
X261856Y-227862D01*
X260079Y-230084D01*
X260079Y-232307D01*
X261856Y-234529D01*
X265412Y-235640D01*
X274301Y-235640D01*
G54D23*
X253857Y-244529D02*
X253857Y-226751D01*
X244968Y-226751D01*
X241412Y-227862D01*
X239635Y-230084D01*
X239635Y-241196D01*
X241412Y-243418D01*
X244968Y-244529D01*
X253857Y-244529D01*
G54D23*
X233413Y-226751D02*
X233413Y-241196D01*
X231635Y-243418D01*
X228080Y-244529D01*
X224524Y-244529D01*
X220968Y-243418D01*
X219191Y-241196D01*
X219191Y-226751D01*
G54D23*
X212969Y-244529D02*
X212969Y-226751D01*
G54D23*
X206747Y-244529D02*
X206747Y-226751D01*
X192525Y-244529D01*
X192525Y-226751D01*
G54D23*
X172081Y-230084D02*
X172081Y-241196D01*
X173858Y-243418D01*
X177414Y-244529D01*
X180970Y-244529D01*
X184525Y-243418D01*
X186303Y-241196D01*
X186303Y-230084D01*
X184525Y-227862D01*
X180970Y-226751D01*
X177414Y-226751D01*
X173858Y-227862D01*
X172081Y-230084D01*
G54D23*
X152170Y-244529D02*
X152170Y-226751D01*
G54D23*
X159281Y-226751D02*
X145059Y-226751D01*
G54D23*
X138837Y-244529D02*
X138837Y-226751D01*
X124615Y-244529D01*
X124615Y-226751D01*
G54D23*
X104171Y-241196D02*
X105948Y-243418D01*
X109504Y-244529D01*
X113060Y-244529D01*
X116615Y-243418D01*
X118393Y-241196D01*
X118393Y-230084D01*
X116615Y-227862D01*
X113060Y-226751D01*
X109504Y-226751D01*
X105948Y-227862D01*
X104171Y-230084D01*
G54D23*
X91371Y-236751D02*
X77149Y-236751D01*
G54D23*
X84260Y-232307D02*
X84260Y-241196D01*
G54D24*
X284402Y-265090D02*
X285402Y-266757D01*
X287402Y-267590D01*
X289402Y-267590D01*
X291402Y-266757D01*
X292402Y-265090D01*
X292402Y-256757D01*
X291402Y-255090D01*
X289402Y-254257D01*
X287402Y-254257D01*
X285402Y-255090D01*
X284402Y-256757D01*
G54D24*
X273735Y-265590D02*
X273735Y-262257D01*
X274735Y-260590D01*
X276735Y-260090D01*
X278735Y-260590D01*
X279735Y-262257D01*
X279735Y-265590D01*
X278735Y-267257D01*
X276735Y-267590D01*
X274735Y-267257D01*
X273735Y-265590D01*
G54D24*
X263068Y-267590D02*
X263068Y-254257D01*
G54D24*
X263068Y-262257D02*
X264068Y-260590D01*
X266068Y-260090D01*
X268068Y-260590D01*
X269068Y-262257D01*
X269068Y-265590D01*
X268068Y-267257D01*
X266068Y-267590D01*
X264068Y-267257D01*
X263068Y-265590D01*
G54D24*
X252401Y-266757D02*
X254001Y-267590D01*
X256001Y-267590D01*
X258001Y-266757D01*
X258401Y-265090D01*
X258401Y-262257D01*
X257401Y-260590D01*
X255401Y-260090D01*
X253401Y-260590D01*
X252401Y-261757D01*
X252401Y-263424D01*
X258401Y-263424D01*
G54D24*
X247734Y-267590D02*
X247734Y-267590D01*
G54D24*
X247734Y-260090D02*
X247734Y-260090D01*
G54D24*
X238200Y-267590D02*
X238200Y-254257D01*
G54D24*
X238200Y-263424D02*
X230200Y-254257D01*
G54D24*
X235200Y-260924D02*
X230200Y-267590D01*
G54D24*
X225533Y-267590D02*
X225533Y-254257D01*
G54D24*
X214866Y-267590D02*
X214866Y-254257D01*
X220866Y-262590D01*
X220866Y-264257D01*
X212866Y-264257D01*
G54D24*
X208199Y-267590D02*
X208199Y-254257D01*
X203199Y-262590D01*
X198199Y-254257D01*
X198199Y-267590D01*
G54D24*
X185532Y-265090D02*
X186532Y-266757D01*
X188532Y-267590D01*
X190532Y-267590D01*
X192532Y-266757D01*
X193532Y-265090D01*
X193532Y-256757D01*
X192532Y-255090D01*
X190532Y-254257D01*
X188532Y-254257D01*
X186532Y-255090D01*
X185532Y-256757D01*
G54D24*
X180865Y-254257D02*
X180865Y-267590D01*
X175865Y-259257D01*
X170865Y-267590D01*
X170865Y-254257D01*
G54D24*
X166198Y-267590D02*
X158198Y-254257D01*
G54D24*
X153531Y-265090D02*
X152531Y-266757D01*
X150531Y-267590D01*
X148531Y-267590D01*
X146531Y-266757D01*
X145531Y-265090D01*
X145531Y-263424D01*
X146531Y-261757D01*
X148531Y-260924D01*
X150531Y-260924D01*
X152531Y-260090D01*
X153531Y-258424D01*
X153531Y-256757D01*
X152531Y-255090D01*
X150531Y-254257D01*
X148531Y-254257D01*
X146531Y-255090D01*
X145531Y-256757D01*
G54D24*
X136864Y-265090D02*
X131864Y-267590D01*
G54D24*
X132864Y-256757D02*
X132864Y-265090D01*
X133864Y-266757D01*
X135864Y-267590D01*
X137864Y-267590D01*
X139864Y-266757D01*
X140864Y-265090D01*
X140864Y-256757D01*
X139864Y-255090D01*
X137864Y-254257D01*
X135864Y-254257D01*
X133864Y-255090D01*
X132864Y-256757D01*
G54D24*
X119197Y-254257D02*
X127197Y-254257D01*
X127197Y-260090D01*
X126197Y-260090D01*
X124197Y-259257D01*
X122197Y-259257D01*
X120197Y-260090D01*
X119197Y-261757D01*
X119197Y-265090D01*
X120197Y-266757D01*
X122197Y-267590D01*
X124197Y-267590D01*
X126197Y-266757D01*
X127197Y-265090D01*
G54D24*
X110530Y-260924D02*
X107530Y-262590D01*
X106530Y-264257D01*
X106530Y-267590D01*
G54D24*
X114530Y-267590D02*
X114530Y-254257D01*
X109530Y-254257D01*
X107530Y-255090D01*
X106530Y-256757D01*
X106530Y-258424D01*
X107530Y-260090D01*
X109530Y-260924D01*
X114530Y-260924D01*
G54D24*
X101863Y-254257D02*
X101863Y-267590D01*
X96863Y-259257D01*
X91863Y-267590D01*
X91863Y-254257D01*
G54D24*
X87196Y-254257D02*
X87196Y-265090D01*
X86196Y-266757D01*
X84196Y-267590D01*
X82196Y-267590D01*
X80196Y-266757D01*
X79196Y-265090D01*
X79196Y-254257D01*
G54D24*
X324308Y-284140D02*
X323308Y-285807D01*
X321308Y-286640D01*
X319308Y-286640D01*
X317308Y-285807D01*
X316308Y-284140D01*
X316308Y-282474D01*
X317308Y-280807D01*
X319308Y-279974D01*
X321308Y-279974D01*
X323308Y-279140D01*
X324308Y-277474D01*
X324308Y-275807D01*
X323308Y-274140D01*
X321308Y-273307D01*
X319308Y-273307D01*
X317308Y-274140D01*
X316308Y-275807D01*
G54D24*
X306641Y-279640D02*
X308641Y-279140D01*
X310641Y-279640D01*
X311641Y-281307D01*
X311641Y-284640D01*
X310641Y-286307D01*
X308641Y-286640D01*
X306641Y-286307D01*
G54D24*
X301974Y-286640D02*
X301974Y-273307D01*
G54D24*
X301974Y-281307D02*
X300974Y-279640D01*
X298974Y-279140D01*
X296974Y-279640D01*
X295974Y-281307D01*
X295974Y-286640D01*
G54D24*
X285307Y-285807D02*
X286907Y-286640D01*
X288907Y-286640D01*
X290907Y-285807D01*
X291307Y-284140D01*
X291307Y-281307D01*
X290307Y-279640D01*
X288307Y-279140D01*
X286307Y-279640D01*
X285307Y-280807D01*
X285307Y-282474D01*
X291307Y-282474D01*
G54D24*
X280640Y-286640D02*
X280640Y-279140D01*
G54D24*
X280640Y-280474D02*
X278640Y-279140D01*
X276640Y-279640D01*
X275640Y-280807D01*
X275640Y-286640D01*
G54D24*
X275640Y-280474D02*
X273640Y-279140D01*
X271640Y-279640D01*
X270640Y-280807D01*
X270640Y-286640D01*
G54D24*
X265973Y-279974D02*
X263973Y-279140D01*
X261573Y-279140D01*
X259973Y-280807D01*
X259973Y-286640D01*
G54D24*
X259973Y-284140D02*
X260973Y-282474D01*
X262973Y-282140D01*
X264973Y-282474D01*
X265973Y-284140D01*
X265573Y-285807D01*
X263973Y-286640D01*
X262973Y-286640D01*
X262573Y-286640D01*
X260973Y-285807D01*
X259973Y-284140D01*
G54D24*
X253306Y-273307D02*
X253306Y-285807D01*
X252306Y-286640D01*
X251306Y-286307D01*
G54D24*
X255306Y-279140D02*
X251306Y-279140D01*
G54D24*
X246639Y-286640D02*
X246639Y-279140D01*
G54D24*
X246639Y-276640D02*
X246639Y-276640D01*
G54D24*
X236972Y-279640D02*
X238972Y-279140D01*
X240972Y-279640D01*
X241972Y-281307D01*
X241972Y-284640D01*
X240972Y-286307D01*
X238972Y-286640D01*
X236972Y-286307D01*
G54D24*
X232305Y-286640D02*
X232305Y-286640D01*
G54D24*
X232305Y-279140D02*
X232305Y-279140D01*
G54D24*
X222771Y-286640D02*
X222771Y-273307D01*
X217771Y-281640D01*
X212771Y-273307D01*
X212771Y-286640D01*
G54D24*
X208104Y-278307D02*
X203104Y-273307D01*
X203104Y-286640D01*
G54D24*
X194437Y-279974D02*
X190437Y-279974D01*
X190437Y-284140D01*
X191437Y-285807D01*
X193437Y-286640D01*
X195437Y-286640D01*
X197437Y-285807D01*
X198437Y-284140D01*
X198437Y-275807D01*
X197437Y-274140D01*
X195437Y-273307D01*
X193437Y-273307D01*
X191437Y-274140D01*
X190437Y-275807D01*
G54D24*
X178770Y-286640D02*
X185770Y-286640D01*
X185770Y-273307D01*
X178770Y-273307D01*
G54D24*
X185770Y-279974D02*
X178770Y-279974D01*
G54D24*
X166103Y-275807D02*
X166103Y-284140D01*
X167103Y-285807D01*
X169103Y-286640D01*
X171103Y-286640D01*
X173103Y-285807D01*
X174103Y-284140D01*
X174103Y-275807D01*
X173103Y-274140D01*
X171103Y-273307D01*
X169103Y-273307D01*
X167103Y-274140D01*
X166103Y-275807D01*
G54D24*
X161436Y-286640D02*
X153436Y-273307D01*
G54D24*
X148769Y-284140D02*
X147769Y-285807D01*
X145769Y-286640D01*
X143769Y-286640D01*
X141769Y-285807D01*
X140769Y-284140D01*
X140769Y-282474D01*
X141769Y-280807D01*
X143769Y-279974D01*
X145769Y-279974D01*
X147769Y-279140D01*
X148769Y-277474D01*
X148769Y-275807D01*
X147769Y-274140D01*
X145769Y-273307D01*
X143769Y-273307D01*
X141769Y-274140D01*
X140769Y-275807D01*
G54D24*
X136102Y-286640D02*
X136102Y-273307D01*
X131102Y-273307D01*
X129102Y-274140D01*
X128102Y-275807D01*
X128102Y-277474D01*
X129102Y-279140D01*
X131102Y-279974D01*
X136102Y-279974D01*
G54D24*
X115435Y-273307D02*
X123435Y-273307D01*
X123435Y-279140D01*
X122435Y-279140D01*
X120435Y-278307D01*
X118435Y-278307D01*
X116435Y-279140D01*
X115435Y-280807D01*
X115435Y-284140D01*
X116435Y-285807D01*
X118435Y-286640D01*
X120435Y-286640D01*
X122435Y-285807D01*
X123435Y-284140D01*
G54D24*
X106768Y-279974D02*
X103768Y-281640D01*
X102768Y-283307D01*
X102768Y-286640D01*
G54D24*
X110768Y-286640D02*
X110768Y-273307D01*
X105768Y-273307D01*
X103768Y-274140D01*
X102768Y-275807D01*
X102768Y-277474D01*
X103768Y-279140D01*
X105768Y-279974D01*
X110768Y-279974D01*
G54D24*
X98101Y-273307D02*
X90101Y-273307D01*
X98101Y-286640D01*
X90101Y-286640D01*
G54D24*
X85434Y-286640D02*
X85434Y-273307D01*
X80434Y-273307D01*
X78434Y-274140D01*
X77434Y-275807D01*
X77434Y-277474D01*
X78434Y-279140D01*
X80434Y-279974D01*
X85434Y-279974D01*
G54D24*
X195661Y-307278D02*
X195661Y-293945D01*
X190661Y-293945D01*
X188661Y-294778D01*
X187661Y-296445D01*
X187661Y-298111D01*
X188661Y-299778D01*
X190661Y-300611D01*
X195661Y-300611D01*
G54D24*
X177994Y-300278D02*
X179994Y-299778D01*
X181994Y-300278D01*
X182994Y-301945D01*
X182994Y-305278D01*
X181994Y-306945D01*
X179994Y-307278D01*
X177994Y-306945D01*
G54D24*
X173327Y-307278D02*
X173327Y-293945D01*
G54D24*
X173327Y-301945D02*
X172327Y-300278D01*
X170327Y-299778D01*
X168327Y-300278D01*
X167327Y-301945D01*
X167327Y-305278D01*
X168327Y-306945D01*
X170327Y-307278D01*
X172327Y-306945D01*
X173327Y-305278D01*
G54D24*
X162660Y-307278D02*
X162660Y-307278D01*
G54D24*
X162660Y-299778D02*
X162660Y-299778D01*
G54D24*
X153126Y-304778D02*
X152126Y-306445D01*
X150126Y-307278D01*
X148126Y-307278D01*
X146126Y-306445D01*
X145126Y-304778D01*
X145126Y-303111D01*
X146126Y-301445D01*
X148126Y-300611D01*
X150126Y-300611D01*
X152126Y-299778D01*
X153126Y-298111D01*
X153126Y-296445D01*
X152126Y-294778D01*
X150126Y-293945D01*
X148126Y-293945D01*
X146126Y-294778D01*
X145126Y-296445D01*
G54D24*
X136459Y-304778D02*
X131459Y-307278D01*
G54D24*
X132459Y-296445D02*
X132459Y-304778D01*
X133459Y-306445D01*
X135459Y-307278D01*
X137459Y-307278D01*
X139459Y-306445D01*
X140459Y-304778D01*
X140459Y-296445D01*
X139459Y-294778D01*
X137459Y-293945D01*
X135459Y-293945D01*
X133459Y-294778D01*
X132459Y-296445D01*
G54D24*
X126792Y-304778D02*
X125792Y-306445D01*
X123792Y-307278D01*
X121792Y-307278D01*
X119792Y-306445D01*
X118792Y-304778D01*
X118792Y-300611D01*
X118792Y-299778D01*
X121792Y-301445D01*
X123792Y-301445D01*
X125792Y-300611D01*
X126792Y-298945D01*
X126792Y-296445D01*
X125792Y-294778D01*
X123792Y-293945D01*
X121792Y-293945D01*
X119792Y-294778D01*
X118792Y-296445D01*
X118792Y-300611D01*
G54D24*
X114125Y-307278D02*
X114125Y-293945D01*
X109125Y-302278D01*
X104125Y-293945D01*
X104125Y-307278D01*
G54D24*
X99458Y-307278D02*
X99458Y-293945D01*
X94458Y-293945D01*
X92458Y-294778D01*
X91458Y-296445D01*
X91458Y-304778D01*
X92458Y-306445D01*
X94458Y-307278D01*
X99458Y-307278D01*
G54D24*
X86791Y-307278D02*
X86791Y-293945D01*
X81791Y-293945D01*
X79791Y-294778D01*
X78791Y-296445D01*
X78791Y-304778D01*
X79791Y-306445D01*
X81791Y-307278D01*
X86791Y-307278D01*
G36*
X47625Y-423862D02*
X47625Y-346075D01*
X25400Y-322262D01*
X25400Y-511175D01*
X298450Y-511175D01*
X298450Y-442912D01*
X231775Y-442912D01*
X212725Y-423862D01*
X47625Y-423862D01*
G37*
G54D21*
X47625Y-423862D02*
X47625Y-346075D01*
X25400Y-322262D01*
X25400Y-511175D01*
X298450Y-511175D01*
X298450Y-442912D01*
X231775Y-442912D01*
X212725Y-423862D01*
X47625Y-423862D01*
G36*
X30162Y-30162D02*
X80962Y-30162D01*
X80962Y-106362D01*
X55562Y-106362D01*
X30162Y-131762D01*
X30162Y-30162D01*
G37*
G54D21*
X30162Y-30162D02*
X80962Y-30162D01*
X80962Y-106362D01*
X55562Y-106362D01*
X30162Y-131762D01*
X30162Y-30162D01*
X751932Y-50595D02*
G54D17*
D03*
X751932Y-101396D02*
G54D17*
D03*
X777332Y-75996D02*
G54D17*
D03*
G54D21*
X368300Y-487362D02*
X344488Y-487362D01*
X319088Y-461962D01*
X319088Y-433388D01*
X309562Y-423862D01*
X239712Y-423862D01*
X227012Y-411162D01*
X227012Y-382588D01*
X217488Y-373062D01*
X157162Y-373062D01*
X150812Y-366712D01*
X150812Y-347662D01*
X273050Y-122238D02*
G54D13*
D03*
X273050Y-46038D02*
G54D13*
D03*
X404813Y-153988D02*
G54D11*
D03*
X430213Y-153988D02*
G54D11*
D03*
X455612Y-153988D02*
G54D11*
D03*
X379412Y-153988D02*
G54D11*
D03*
G54D25*
X347662Y-63500D02*
X347662Y-107950D01*
G54D19*
X322262Y-150812D02*
X322262Y-144462D01*
X338138Y-128588D01*
X373062Y-128588D01*
X392112Y-109538D01*
G54D19*
X439738Y-79375D02*
X439738Y-66675D01*
X449262Y-57150D01*
X474662Y-57150D01*
G54D19*
X354012Y-198438D02*
X354012Y-177800D01*
X381000Y-150812D01*
G54D21*
X355600Y-347662D02*
X355600Y-338138D01*
X390525Y-303212D01*
X390525Y-255588D01*
X377825Y-242888D01*
G54D19*
X455612Y-153988D02*
X458788Y-166688D01*
X458788Y-227012D01*
X446088Y-239712D01*
G54D21*
X406400Y-261938D02*
X406400Y-347662D01*
G54D21*
X355600Y-198438D02*
X355600Y-209550D01*
X366712Y-220662D01*
X395288Y-220662D01*
X406400Y-231775D01*
X406400Y-260350D01*
G36*
X597100Y-202013D02*
X597100Y-216013D01*
X583100Y-216013D01*
X583100Y-202013D01*
X597100Y-202013D01*
G37*
X590100Y-234414D02*
G54D26*
D03*
X590100Y-259814D02*
G54D26*
D03*
X590100Y-285213D02*
G54D26*
D03*
X590100Y-310614D02*
G54D26*
D03*
X590100Y-336014D02*
G54D26*
D03*
X590100Y-361414D02*
G54D26*
D03*
X590100Y-386814D02*
G54D26*
D03*
X666300Y-386813D02*
G54D26*
D03*
X666300Y-361414D02*
G54D26*
D03*
X666300Y-336014D02*
G54D26*
D03*
X666300Y-310614D02*
G54D26*
D03*
X666300Y-285214D02*
G54D26*
D03*
X666300Y-259813D02*
G54D26*
D03*
X666300Y-234414D02*
G54D26*
D03*
X666300Y-209013D02*
G54D26*
D03*
X584088Y-160337D02*
G54D13*
D03*
X535688Y-160337D02*
G54D13*
D03*
X665163Y-128588D02*
G54D14*
D03*
X614363Y-128588D02*
G54D14*
D03*
X490536Y-201613D02*
G54D14*
D03*
X490536Y-150812D02*
G54D14*
D03*
X539749Y-468313D02*
G54D14*
D03*
X488949Y-468313D02*
G54D14*
D03*
X465138Y-466725D02*
G54D13*
D03*
X388938Y-466725D02*
G54D13*
D03*
X658812Y-417512D02*
G54D14*
D03*
X608012Y-417512D02*
G54D14*
D03*
X684212Y-396875D02*
G54D14*
D03*
X735012Y-396875D02*
G54D14*
D03*
X735013Y-422275D02*
G54D14*
D03*
X684213Y-422275D02*
G54D14*
D03*
X831850Y-392112D02*
G54D13*
D03*
X831850Y-468312D02*
G54D13*
D03*
X712789Y-444501D02*
G54D13*
D03*
X788989Y-444501D02*
G54D13*
D03*
X785812Y-274637D02*
G54D13*
D03*
X709612Y-274637D02*
G54D13*
D03*
X785813Y-306387D02*
G54D13*
D03*
X709612Y-306387D02*
G54D13*
D03*
X784225Y-342902D02*
G54D13*
D03*
X784225Y-419102D02*
G54D13*
D03*
X809625Y-349249D02*
G54D13*
D03*
X809625Y-425449D02*
G54D13*
D03*
X719356Y-481167D02*
G54D11*
D03*
X744756Y-481167D02*
G54D11*
D03*
X622300Y-442912D02*
G54D13*
D03*
X546100Y-442912D02*
G54D13*
D03*
X508962Y-342479D02*
G54D17*
D03*
X508962Y-291679D02*
G54D17*
D03*
X483562Y-317079D02*
G54D17*
D03*
X560388Y-265112D02*
G54D13*
D03*
X484188Y-265112D02*
G54D13*
D03*
X360364Y-304800D02*
G54D13*
D03*
X436564Y-304800D02*
G54D13*
D03*
X617538Y-466724D02*
G54D13*
D03*
X693738Y-466724D02*
G54D13*
D03*
G54D21*
X430212Y-198438D02*
X430212Y-153988D01*
G54D21*
X404812Y-153988D02*
X404812Y-200025D01*
G54D21*
X381000Y-150812D02*
X381000Y-147638D01*
X420688Y-107950D01*
G54D21*
X365125Y-304800D02*
X365125Y-307975D01*
X374650Y-317500D01*
G54D21*
X381000Y-388938D02*
X404812Y-388938D01*
G54D21*
X406400Y-346075D02*
X406400Y-354012D01*
X427038Y-374650D01*
X465138Y-374650D01*
X481012Y-390525D01*
G54D21*
X446088Y-417512D02*
X471488Y-417512D01*
X481012Y-407988D01*
X481012Y-388938D01*
G54D21*
X392112Y-392112D02*
X392112Y-417512D01*
X393700Y-419100D01*
X414338Y-419100D01*
X446088Y-450850D01*
X446088Y-488950D01*
G54D21*
X508000Y-290512D02*
X508000Y-255588D01*
X495300Y-242888D01*
X474662Y-242888D01*
X446088Y-271462D01*
X411162Y-271462D01*
G54D21*
X506412Y-341312D02*
X469900Y-341312D01*
X436562Y-307975D01*
G54D21*
X481012Y-317500D02*
X481012Y-266700D01*
G54D21*
X588962Y-234950D02*
X568325Y-234950D01*
X557212Y-246062D01*
X557212Y-266700D01*
G54D21*
X668338Y-125412D02*
X668338Y-206375D01*
X666750Y-207962D01*
G54D21*
X584200Y-160338D02*
X592138Y-152400D01*
X668338Y-152400D01*
G54D22*
X595312Y-284162D02*
X606425Y-284162D01*
X611188Y-288925D01*
X611188Y-415925D01*
G54D21*
X546100Y-441325D02*
X581025Y-441325D01*
G54D21*
X665162Y-260350D02*
X639762Y-260350D01*
X625475Y-274638D01*
X625475Y-439738D01*
X622300Y-442912D01*
G54D22*
X666750Y-336550D02*
X652462Y-336550D01*
X641350Y-347662D01*
X641350Y-476250D01*
X631825Y-485775D01*
X557212Y-485775D01*
X542925Y-471488D01*
G54D21*
X588962Y-209550D02*
X541338Y-209550D01*
X527050Y-223838D01*
X458788Y-223838D01*
G54D21*
X590550Y-387350D02*
X585788Y-392112D01*
X585788Y-454025D01*
X600075Y-468312D01*
X619125Y-468312D01*
G54D21*
X665162Y-285750D02*
X673100Y-285750D01*
X684212Y-274638D01*
X684212Y-115888D01*
X676275Y-107950D01*
X635000Y-107950D01*
X614362Y-128588D01*
G54D21*
X666750Y-285750D02*
X666750Y-311150D01*
G54D21*
X666750Y-357188D02*
X682625Y-357188D01*
X690562Y-349250D01*
X690562Y-292100D01*
X709612Y-273050D01*
G54D21*
X711200Y-306388D02*
X692150Y-306388D01*
G54D21*
X682625Y-401638D02*
X682625Y-422275D01*
G54D21*
X658812Y-417512D02*
X684212Y-417512D01*
G54D21*
X706438Y-439738D02*
X688975Y-422275D01*
G54D21*
X696912Y-468312D02*
X696912Y-476250D01*
X704850Y-484188D01*
X722312Y-484188D01*
G54D19*
X868362Y-384175D02*
X868362Y-273050D01*
X868362Y-269875D01*
X842962Y-244475D01*
X685800Y-244475D01*
G54D27*
X836612Y-392112D02*
X858838Y-392112D01*
X868362Y-382588D01*
G54D27*
X792162Y-449262D02*
X858838Y-449262D01*
X869950Y-460375D01*
G54D21*
X835025Y-468312D02*
X835025Y-447675D01*
G54D21*
X666750Y-387350D02*
X679450Y-374650D01*
X804862Y-374650D01*
X823912Y-393700D01*
X833438Y-393700D01*
G54D21*
X735012Y-417512D02*
X735012Y-377825D01*
G54D21*
X785812Y-274638D02*
X785812Y-246062D01*
G54D21*
X785812Y-342900D02*
X785812Y-373062D01*
G54D22*
X590550Y-361950D02*
X574675Y-361950D01*
X563562Y-373062D01*
X563562Y-404812D01*
X554038Y-414338D01*
X534988Y-414338D01*
X520700Y-428625D01*
X520700Y-474662D01*
X546100Y-500062D01*
X758825Y-500062D01*
X768350Y-490538D01*
X768350Y-428625D01*
X776288Y-420688D01*
X809625Y-420688D01*
G54D21*
X466725Y-466725D02*
X488950Y-466725D01*
G54D21*
X388938Y-466725D02*
X382588Y-466725D01*
X369888Y-479425D01*
X369888Y-485775D01*
X757238Y-404813D02*
G54D17*
D03*
X757238Y-346075D02*
G54D28*
D03*
G54D21*
X757238Y-406400D02*
X757238Y-420688D01*
X752475Y-425450D01*
X752475Y-471488D01*
X746125Y-477838D01*
G54D21*
X757238Y-346075D02*
X757238Y-314325D01*
X769938Y-301625D01*
X812800Y-301625D01*
X812800Y-347662D01*
G54D21*
X924242Y-377031D02*
X924242Y-518319D01*
X894080Y-518319D01*
X646528Y-178158D02*
G54D17*
D03*
X705266Y-178158D02*
G54D28*
D03*
G54D22*
X501650Y-66675D02*
X496888Y-66675D01*
X479425Y-84138D01*
X468312Y-84138D01*
X442912Y-109538D01*
X423862Y-109538D01*
X412750Y-98425D01*
X412750Y-84138D01*
X388938Y-60325D01*
G54D22*
X665162Y-234950D02*
X644525Y-234950D01*
X603250Y-193675D01*
X498475Y-193675D01*
X490538Y-201612D01*
G54D22*
X536575Y-169862D02*
X536575Y-192088D01*
G54D22*
X461962Y-179388D02*
X496888Y-179388D01*
X511175Y-165100D01*
X511175Y-150812D01*
X520700Y-141288D01*
X555625Y-141288D01*
X563562Y-149225D01*
X563562Y-171450D01*
X571500Y-179388D01*
X639762Y-179388D01*
X642938Y-176212D01*
X814446Y-219848D02*
G54D17*
D03*
X814446Y-278586D02*
G54D28*
D03*
G54D21*
X812800Y-347662D02*
X812800Y-276225D01*
G54D19*
X814388Y-219075D02*
X747712Y-219075D01*
X704850Y-176212D01*
G54D22*
X476250Y-112712D02*
X601662Y-112712D01*
X623888Y-90488D01*
X688975Y-90488D01*
X703262Y-104775D01*
X703262Y-139700D01*
X758825Y-195262D01*
X869950Y-195262D01*
G54D21*
X577850Y-68262D02*
X592138Y-68262D01*
X601662Y-58738D01*
X601662Y-52388D01*
G54D21*
X577850Y-93662D02*
X558800Y-93662D01*
X554038Y-88900D01*
X554038Y-19050D01*
X1133475Y-19050D01*
G54D19*
X752475Y-50800D02*
X752475Y-20638D01*
G54D21*
X1135062Y-20638D02*
X1135062Y-519112D01*
X947738Y-519112D01*
X947738Y-219075D01*
X898525Y-169862D01*
X766762Y-169862D01*
X722312Y-125412D01*
X722312Y-95250D01*
X701675Y-74612D01*
X614362Y-74612D01*
X595312Y-93662D01*
X577850Y-93662D01*
G54D21*
X677862Y-52388D02*
X712788Y-52388D01*
X736600Y-76200D01*
X777875Y-76200D01*
G54D27*
X1092200Y-347662D02*
X1128712Y-347662D01*
G54D27*
X1101725Y-195262D02*
X1130300Y-195262D01*
G54D27*
X1100138Y-295275D02*
X1130300Y-295275D01*
G54D27*
X1004888Y-271462D02*
X1071562Y-271462D01*
X1095375Y-295275D01*
G54D27*
X1044575Y-241300D02*
X1093788Y-241300D01*
X1096963Y-442913D02*
G54D14*
D03*
X1046163Y-442913D02*
G54D14*
D03*
G54D27*
X1096962Y-400050D02*
X1096962Y-439738D01*
G54D27*
X1041400Y-442912D02*
X1014412Y-442912D01*
X1000125Y-457200D01*
G54D27*
X1096962Y-347662D02*
X1020762Y-347662D01*
X1001712Y-366712D01*
X1001712Y-379412D01*
X1040448Y-239713D02*
G54D14*
D03*
X1040448Y-188913D02*
G54D14*
D03*
G54D27*
X1004888Y-198438D02*
X1030288Y-198438D01*
X1041400Y-187325D01*
X1035050Y-106362D02*
G54D11*
D03*
X1035050Y-80962D02*
G54D11*
D03*
X1004888Y-103187D02*
G54D13*
D03*
X928687Y-103187D02*
G54D13*
D03*
G54D19*
X752475Y-103188D02*
X798512Y-103188D01*
X827088Y-74612D01*
X1062038Y-74612D01*
X1098550Y-111125D01*
X1098550Y-141288D01*
G54D19*
X1073150Y-242888D02*
X1073150Y-152400D01*
X1054100Y-133350D01*
X939800Y-133350D01*
X928688Y-122238D01*
X928688Y-106362D01*
G54D21*
X1008062Y-104775D02*
X1038225Y-104775D01*
X804863Y-47626D02*
G54D14*
D03*
X855663Y-47626D02*
G54D14*
D03*
G54D19*
X804862Y-50800D02*
X804862Y-20638D01*
G54D21*
X855662Y-47625D02*
X877888Y-47625D01*
X887412Y-57150D01*
X887412Y-73025D01*
G36*
X919162Y-26988D02*
X919162Y-49212D01*
X1127125Y-49212D01*
X1127125Y-26988D01*
X919162Y-26988D01*
G37*
G54D27*
X919162Y-26988D02*
X919162Y-49212D01*
X1127125Y-49212D01*
X1127125Y-26988D01*
X919162Y-26988D01*
G54D23*
X911033Y-138112D02*
X904366Y-120335D01*
X897700Y-138112D01*
G54D23*
X908366Y-131446D02*
X900366Y-131446D01*
G54D23*
X886145Y-138112D02*
X886145Y-120335D01*
G54D23*
X891478Y-120335D02*
X880811Y-120335D01*
G54D23*
X874589Y-138112D02*
X874589Y-120335D01*
X863922Y-138112D01*
X863922Y-120335D01*
G54D23*
X847033Y-134779D02*
X848367Y-137001D01*
X851033Y-138112D01*
X853700Y-138112D01*
X856367Y-137001D01*
X857700Y-134779D01*
X857700Y-123668D01*
X856367Y-121446D01*
X853700Y-120335D01*
X851033Y-120335D01*
X848367Y-121446D01*
X847033Y-123668D01*
G54D23*
X840811Y-130335D02*
X830144Y-130335D01*
G54D23*
X835478Y-125890D02*
X835478Y-134779D01*
G54D23*
X817433Y-128112D02*
X812100Y-138112D01*
X806766Y-128112D01*
G54D23*
X800544Y-138112D02*
X800544Y-138112D01*
G54D23*
X783655Y-138112D02*
X794322Y-138112D01*
X794322Y-137001D01*
X792989Y-134779D01*
X784989Y-128112D01*
X783655Y-125890D01*
X783655Y-123668D01*
X784989Y-121446D01*
X787655Y-120335D01*
X790322Y-120335D01*
X792989Y-121446D01*
X794322Y-123668D01*
G54D23*
X777433Y-138112D02*
X777433Y-138112D01*
G54D23*
X771211Y-127001D02*
X764544Y-120335D01*
X764544Y-138112D01*
G54D22*
X612775Y-128588D02*
X401638Y-128588D01*
G54D22*
X490538Y-128588D02*
X490538Y-147638D01*
G54D27*
X954088Y-514350D02*
X954088Y-217488D01*
X908050Y-171450D01*
G36*
X876300Y-277812D02*
X919162Y-277812D01*
X919162Y-377825D01*
X876300Y-377825D01*
X876300Y-277812D01*
G37*
G54D27*
X876300Y-277812D02*
X919162Y-277812D01*
X919162Y-377825D01*
X876300Y-377825D01*
X876300Y-277812D01*
G54D21*
X908050Y-166688D02*
X765175Y-166688D01*
G54D21*
X508000Y-342900D02*
X538162Y-342900D01*
X569912Y-311150D01*
X590550Y-311150D01*
X381415Y-244832D02*
G54D17*
D03*
X440153Y-244832D02*
G54D28*
D03*
G54D29*
X985134Y-380982D02*
X969134Y-386982D01*
X985134Y-392982D01*
G54D29*
X979134Y-383382D02*
X979134Y-390582D01*
G54D29*
X976134Y-405782D02*
X985134Y-405782D01*
G54D29*
X983134Y-405782D02*
X984734Y-404582D01*
X985134Y-402182D01*
X984734Y-399782D01*
X983134Y-398582D01*
X976134Y-398582D01*
G54D29*
X985134Y-418582D02*
X969134Y-418582D01*
G54D29*
X978734Y-418582D02*
X976734Y-417382D01*
X976134Y-414982D01*
X976734Y-412582D01*
X978734Y-411382D01*
X982734Y-411382D01*
X984734Y-412582D01*
X985134Y-414982D01*
X984734Y-417382D01*
X982734Y-418582D01*
G54D29*
X985134Y-424182D02*
X976134Y-424182D01*
G54D29*
X973134Y-424182D02*
X973134Y-424182D01*
G54D29*
X982734Y-436982D02*
X978734Y-436982D01*
X976734Y-435782D01*
X976134Y-433382D01*
X976734Y-430982D01*
X978734Y-429782D01*
X982734Y-429782D01*
X984734Y-430982D01*
X985134Y-433382D01*
X984734Y-435782D01*
X982734Y-436982D01*
G54D29*
X985134Y-448422D02*
X969134Y-448422D01*
G54D29*
X985134Y-454022D02*
X969134Y-454022D01*
X985134Y-463622D01*
X969134Y-463622D01*
G54D29*
X986108Y-182707D02*
X970108Y-188707D01*
X986108Y-194707D01*
G54D29*
X980108Y-185107D02*
X980108Y-192307D01*
G54D29*
X977108Y-207507D02*
X986108Y-207507D01*
G54D29*
X984108Y-207507D02*
X985708Y-206307D01*
X986108Y-203907D01*
X985708Y-201507D01*
X984108Y-200307D01*
X977108Y-200307D01*
G54D29*
X986108Y-220307D02*
X970108Y-220307D01*
G54D29*
X979708Y-220307D02*
X977708Y-219107D01*
X977108Y-216707D01*
X977708Y-214307D01*
X979708Y-213107D01*
X983708Y-213107D01*
X985708Y-214307D01*
X986108Y-216707D01*
X985708Y-219107D01*
X983708Y-220307D01*
G54D29*
X986108Y-225907D02*
X977108Y-225907D01*
G54D29*
X974108Y-225907D02*
X974108Y-225907D01*
G54D29*
X983708Y-238707D02*
X979708Y-238707D01*
X977708Y-237507D01*
X977108Y-235107D01*
X977708Y-232707D01*
X979708Y-231507D01*
X983708Y-231507D01*
X985708Y-232707D01*
X986108Y-235107D01*
X985708Y-237507D01*
X983708Y-238707D01*
G54D29*
X973108Y-259747D02*
X983108Y-259747D01*
X985108Y-258547D01*
X986108Y-256147D01*
X986108Y-253747D01*
X985108Y-251347D01*
X983108Y-250147D01*
X973108Y-250147D01*
X971108Y-251347D01*
X970108Y-253747D01*
X970108Y-256147D01*
X971108Y-258547D01*
X973108Y-259747D01*
G54D29*
X970108Y-265347D02*
X983108Y-265347D01*
X985108Y-266547D01*
X986108Y-268947D01*
X986108Y-271347D01*
X985108Y-273747D01*
X983108Y-274947D01*
X970108Y-274947D01*
G54D29*
X986108Y-285347D02*
X970108Y-285347D01*
G54D29*
X970108Y-280547D02*
X970108Y-290147D01*
X512762Y-404812D02*
G54D11*
D03*
X512762Y-379412D02*
G54D11*
D03*
G54D21*
X431800Y-347662D02*
X442912Y-347662D01*
X452438Y-357188D01*
X485775Y-357188D01*
X504825Y-376238D01*
X514350Y-376238D01*
G54D21*
X515938Y-406400D02*
X506412Y-415925D01*
X506412Y-511175D01*
M02*
