%FSLAX34Y34*%
%MOMM*%
%LNSOLDERMASK_BOTTOM*%
G71*
G01*
%ADD10C, 2.50*%
%ADD11C, 2.64*%
%ADD12C, 3.14*%
%ADD13C, 2.60*%
%ADD14C, 2.40*%
%ADD15C, 3.14*%
%ADD16C, 6.60*%
%ADD17C, 2.51*%
%ADD18C, 2.00*%
%ADD19C, 2.64*%
%LPD*%
X871538Y-457588D02*
G54D10*
D03*
X871538Y-382588D02*
G54D10*
D03*
X999331Y-457588D02*
G54D10*
D03*
X999331Y-382588D02*
G54D10*
D03*
X150824Y-198401D02*
G54D11*
D03*
X176224Y-198401D02*
G54D11*
D03*
X201624Y-198401D02*
G54D11*
D03*
X74624Y-198401D02*
G54D11*
D03*
X100024Y-198401D02*
G54D11*
D03*
X125424Y-198401D02*
G54D11*
D03*
X303224Y-198401D02*
G54D11*
D03*
X328624Y-198401D02*
G54D11*
D03*
X354024Y-198401D02*
G54D11*
D03*
X227024Y-198401D02*
G54D11*
D03*
X252424Y-198401D02*
G54D11*
D03*
X277824Y-198401D02*
G54D11*
D03*
X379424Y-198401D02*
G54D11*
D03*
X404824Y-198401D02*
G54D11*
D03*
X430224Y-198401D02*
G54D11*
D03*
X150824Y-347626D02*
G54D11*
D03*
X176224Y-347626D02*
G54D11*
D03*
X201624Y-347626D02*
G54D11*
D03*
X74624Y-347626D02*
G54D11*
D03*
X100024Y-347626D02*
G54D11*
D03*
X125424Y-347626D02*
G54D11*
D03*
X303224Y-347626D02*
G54D11*
D03*
X328624Y-347626D02*
G54D11*
D03*
X354024Y-347626D02*
G54D11*
D03*
X227024Y-347626D02*
G54D11*
D03*
X252424Y-347626D02*
G54D11*
D03*
X277824Y-347626D02*
G54D11*
D03*
X379424Y-347626D02*
G54D11*
D03*
X404824Y-347626D02*
G54D11*
D03*
X430224Y-347626D02*
G54D11*
D03*
X871538Y-271850D02*
G54D10*
D03*
X871538Y-196850D02*
G54D10*
D03*
X999331Y-271850D02*
G54D10*
D03*
X999331Y-196850D02*
G54D10*
D03*
X1100188Y-347612D02*
G54D12*
D03*
X1100188Y-398412D02*
G54D12*
D03*
X409575Y-393700D02*
G54D13*
D03*
X485775Y-393700D02*
G54D13*
D03*
X303212Y-392112D02*
G54D13*
D03*
X379412Y-392112D02*
G54D13*
D03*
X369888Y-488950D02*
G54D13*
D03*
X446088Y-488950D02*
G54D13*
D03*
X246062Y-122238D02*
G54D13*
D03*
X246062Y-46038D02*
G54D13*
D03*
X217488Y-138113D02*
G54D13*
D03*
X217488Y-61912D02*
G54D13*
D03*
X347679Y-58779D02*
G54D11*
D03*
X322279Y-58779D02*
G54D11*
D03*
X347679Y-106404D02*
G54D11*
D03*
X322279Y-106404D02*
G54D11*
D03*
X263525Y-441325D02*
G54D14*
D03*
X263525Y-390525D02*
G54D14*
D03*
X300038Y-446088D02*
G54D14*
D03*
X340038Y-446088D02*
G54D14*
D03*
X177800Y-52388D02*
G54D13*
D03*
X177800Y-128588D02*
G54D13*
D03*
X152400Y-52388D02*
G54D13*
D03*
X152400Y-128588D02*
G54D13*
D03*
X127000Y-52388D02*
G54D13*
D03*
X127000Y-128588D02*
G54D13*
D03*
X101600Y-52388D02*
G54D13*
D03*
X101600Y-128588D02*
G54D13*
D03*
X322262Y-152400D02*
G54D13*
D03*
X246062Y-152400D02*
G54D13*
D03*
X387851Y-58301D02*
G54D15*
D03*
X387851Y-109101D02*
G54D15*
D03*
X438651Y-83701D02*
G54D15*
D03*
X474662Y-57150D02*
G54D14*
D03*
X474662Y-107950D02*
G54D14*
D03*
X1100188Y-246012D02*
G54D12*
D03*
X1100188Y-296812D02*
G54D12*
D03*
X393700Y-420688D02*
G54D14*
D03*
X444500Y-420688D02*
G54D14*
D03*
X49246Y-46066D02*
G54D16*
D03*
X1100188Y-144412D02*
G54D12*
D03*
X1100188Y-195212D02*
G54D12*
D03*
X604837Y-50800D02*
G54D13*
D03*
X681037Y-50800D02*
G54D13*
D03*
X577915Y-41496D02*
G54D17*
D03*
X577915Y-66896D02*
G54D17*
D03*
X501715Y-41496D02*
G54D17*
D03*
X501715Y-66896D02*
G54D17*
D03*
X501715Y-92296D02*
G54D17*
D03*
X577915Y-92296D02*
G54D17*
D03*
X1109696Y-46066D02*
G54D16*
D03*
X49246Y-492154D02*
G54D16*
D03*
X1109696Y-493741D02*
G54D16*
D03*
X74612Y-398462D02*
G54D14*
D03*
X125412Y-398462D02*
G54D14*
D03*
X751932Y-50595D02*
G54D17*
D03*
X751932Y-101396D02*
G54D17*
D03*
X777332Y-75996D02*
G54D17*
D03*
X273050Y-122238D02*
G54D13*
D03*
X273050Y-46038D02*
G54D13*
D03*
X404813Y-153988D02*
G54D11*
D03*
X430213Y-153988D02*
G54D11*
D03*
X455612Y-153988D02*
G54D11*
D03*
X379412Y-153988D02*
G54D11*
D03*
G36*
X600100Y-199013D02*
X600100Y-219013D01*
X580100Y-219013D01*
X580100Y-199013D01*
X600100Y-199013D01*
G37*
X590100Y-234414D02*
G54D18*
D03*
X590100Y-259814D02*
G54D18*
D03*
X590100Y-285213D02*
G54D18*
D03*
X590100Y-310614D02*
G54D18*
D03*
X590100Y-336014D02*
G54D18*
D03*
X590100Y-361414D02*
G54D18*
D03*
X590100Y-386814D02*
G54D18*
D03*
X666300Y-386813D02*
G54D18*
D03*
X666300Y-361414D02*
G54D18*
D03*
X666300Y-336014D02*
G54D18*
D03*
X666300Y-310614D02*
G54D18*
D03*
X666300Y-285214D02*
G54D18*
D03*
X666300Y-259813D02*
G54D18*
D03*
X666300Y-234414D02*
G54D18*
D03*
X666300Y-209013D02*
G54D18*
D03*
X584088Y-160337D02*
G54D13*
D03*
X535688Y-160337D02*
G54D13*
D03*
X665163Y-128588D02*
G54D14*
D03*
X614363Y-128588D02*
G54D14*
D03*
X490536Y-201613D02*
G54D14*
D03*
X490536Y-150812D02*
G54D14*
D03*
X539749Y-468313D02*
G54D14*
D03*
X488949Y-468313D02*
G54D14*
D03*
X465138Y-466725D02*
G54D13*
D03*
X388938Y-466725D02*
G54D13*
D03*
X658812Y-417512D02*
G54D14*
D03*
X608012Y-417512D02*
G54D14*
D03*
X684212Y-396875D02*
G54D14*
D03*
X735012Y-396875D02*
G54D14*
D03*
X735013Y-422275D02*
G54D14*
D03*
X684213Y-422275D02*
G54D14*
D03*
X831850Y-392112D02*
G54D13*
D03*
X831850Y-468312D02*
G54D13*
D03*
X712789Y-444501D02*
G54D13*
D03*
X788989Y-444501D02*
G54D13*
D03*
X785812Y-274637D02*
G54D13*
D03*
X709612Y-274637D02*
G54D13*
D03*
X785813Y-306387D02*
G54D13*
D03*
X709612Y-306387D02*
G54D13*
D03*
X784225Y-342902D02*
G54D13*
D03*
X784225Y-419102D02*
G54D13*
D03*
X809625Y-349249D02*
G54D13*
D03*
X809625Y-425449D02*
G54D13*
D03*
X719356Y-481167D02*
G54D11*
D03*
X744756Y-481167D02*
G54D11*
D03*
X622300Y-442912D02*
G54D13*
D03*
X546100Y-442912D02*
G54D13*
D03*
X508962Y-342479D02*
G54D17*
D03*
X508962Y-291679D02*
G54D17*
D03*
X483562Y-317079D02*
G54D17*
D03*
X560388Y-265112D02*
G54D13*
D03*
X484188Y-265112D02*
G54D13*
D03*
X360364Y-304800D02*
G54D13*
D03*
X436564Y-304800D02*
G54D13*
D03*
X617538Y-466724D02*
G54D13*
D03*
X693738Y-466724D02*
G54D13*
D03*
X757238Y-404813D02*
G54D17*
D03*
X757238Y-346075D02*
G54D19*
D03*
X646528Y-178158D02*
G54D17*
D03*
X705266Y-178158D02*
G54D19*
D03*
X814446Y-219848D02*
G54D17*
D03*
X814446Y-278586D02*
G54D19*
D03*
X1096963Y-442913D02*
G54D14*
D03*
X1046163Y-442913D02*
G54D14*
D03*
X1040448Y-239713D02*
G54D14*
D03*
X1040448Y-188913D02*
G54D14*
D03*
X1035050Y-106362D02*
G54D11*
D03*
X1035050Y-80962D02*
G54D11*
D03*
X1004888Y-103187D02*
G54D13*
D03*
X928687Y-103187D02*
G54D13*
D03*
X804863Y-47626D02*
G54D14*
D03*
X855663Y-47626D02*
G54D14*
D03*
X381415Y-244832D02*
G54D17*
D03*
X440153Y-244832D02*
G54D19*
D03*
X512762Y-404812D02*
G54D11*
D03*
X512762Y-379412D02*
G54D11*
D03*
M02*
