; Drill file
; Format: 2.4 (00.0000)
M48
INCH
T01C0.0236
T02C0.0283
T03C0.0315
T04C0.032
T05C0.0323
T06C0.0402
T07C0.045
T08C0.05
T09C0.1575
%
G05
G90
T01
X002940Y-015690
X004940Y-015690
X010380Y-015380
X011940Y-015440
X011810Y-017560
X010380Y-017380
X013390Y-017560
X014560Y-019250
X015310Y-018370
X015500Y-016560
X016130Y-015500
X014940Y-015440
X017500Y-016560
X019130Y-015500
X019250Y-018440
X018310Y-018370
X017560Y-019250
X021250Y-018440
X021500Y-017440
X023940Y-016440
X024500Y-017440
X024310Y-018370
X025940Y-016440
X026940Y-016630
X026940Y-015620
X028940Y-015620
X028940Y-016630
X028060Y-017500
X027310Y-018370
X031060Y-017500
X030870Y-016500
X031880Y-016750
X032750Y-015440
X031880Y-013750
X030870Y-013500
X030940Y-012060
X030940Y-010810
X027940Y-010810
X027940Y-012060
X022060Y-010440
X019060Y-010440
X017190Y-012000
X014190Y-012000
X012690Y-006000
X010750Y-004810
X009690Y-004810
X009690Y-006000
X008560Y-005440
X007000Y-005060
X006000Y-005060
X005000Y-005060
X004000Y-005060
X004000Y-002060
X005000Y-002060
X006000Y-002060
X007000Y-002060
X008560Y-002440
X009690Y-001810
X010750Y-001810
X018690Y-002250
X018690Y-004250
X019310Y-005940
X021090Y-006310
X023000Y-006310
X024190Y-005060
X026190Y-005060
X026810Y-002000
X023810Y-002000
X019310Y-007940
X031690Y-001880
X033690Y-001880
X036560Y-004060
X039560Y-004060
X040960Y-007440
X040960Y-009440
X041190Y-017440
X043190Y-017440
X032750Y-018440
T02
X023230Y-015230
X023230Y-014230
X023230Y-013230
X023230Y-012230
X023230Y-011230
X023230Y-010230
X023230Y-009230
X023230Y-008230
X026230Y-008230
X026230Y-009230
X026230Y-010230
X026230Y-011230
X026230Y-012230
X026230Y-013230
X026230Y-014230
X026230Y-015230
T03
X034310Y-018020
X034310Y-015060
X034310Y-010700
X034310Y-007750
X039340Y-007750
X039340Y-010700
X039340Y-015060
X039340Y-018020
T04
X015020Y-009640
X019040Y-012480
X020040Y-013480
X020040Y-011480
X025450Y-007010
X022750Y-003630
X022750Y-002630
X022750Y-001630
X019750Y-001630
X019750Y-002630
X019750Y-003630
X029600Y-003990
X030600Y-002990
X029600Y-001990
X032060Y-008660
X029810Y-015940
T05
X017330Y-009640
X027770Y-007010
X032060Y-010970
X029810Y-013630
T06
X002940Y-013690
X003940Y-013690
X004940Y-013690
X005940Y-013690
X006940Y-013690
X007940Y-013690
X008940Y-013690
X009940Y-013690
X010940Y-013690
X011940Y-013690
X012940Y-013690
X013940Y-013690
X014940Y-013690
X015940Y-013690
X016940Y-013690
X020190Y-014940
X020190Y-015940
X028320Y-018940
X029320Y-018940
X016940Y-007810
X015940Y-007810
X014940Y-007810
X013940Y-007810
X012940Y-007810
X011940Y-007810
X010940Y-007810
X009940Y-007810
X008940Y-007810
X007940Y-007810
X006940Y-007810
X005940Y-007810
X004940Y-007810
X003940Y-007810
X002940Y-007810
X012690Y-004190
X013690Y-004190
X013690Y-002310
X012690Y-002310
X014940Y-006060
X015940Y-006060
X016940Y-006060
X017940Y-006060
X040750Y-004190
X040750Y-003190
T07
X043310Y-015690
X043310Y-013690
X043310Y-011690
X043310Y-009690
X043310Y-007690
X043310Y-005690
T08
X015270Y-004300
X015270Y-002300
X017270Y-003300
T09
X001940Y-019380
X001940Y-001810
X043690Y-001810
X043690Y-019440
M30
